<svg width="15" height="15" viewBox="0 0 15 15" fill="none" xmlns="http://www.w3.org/2000/svg">
<path d="M7.5 0C5.4625 0 5.20813 0.009375 4.40812 0.045C3.60938 0.0825 3.06562 0.208125 2.5875 0.39375C2.09437 0.585 1.67562 0.841875 1.25875 1.25875C0.841875 1.67562 0.584375 2.09375 0.39375 2.5875C0.208125 3.06562 0.081875 3.60938 0.045 4.40812C0.0075 5.20813 0 5.4625 0 7.5C0 9.5375 0.009375 9.79187 0.045 10.5919C0.0825 11.39 0.208125 11.9344 0.39375 12.4125C0.582057 12.913 0.877248 13.3665 1.25875 13.7413C1.6333 14.123 2.08681 14.4183 2.5875 14.6063C3.06625 14.7913 3.61 14.9181 4.40812 14.955C5.20813 14.9925 5.4625 15 7.5 15C9.5375 15 9.79187 14.9906 10.5919 14.955C11.39 14.9175 11.9344 14.7913 12.4125 14.6063C12.9129 14.4177 13.3663 14.1225 13.7413 13.7413C14.1231 13.3668 14.4184 12.9133 14.6063 12.4125C14.7913 11.9344 14.9181 11.39 14.955 10.5919C14.9925 9.79187 15 9.5375 15 7.5C15 5.4625 14.9906 5.20813 14.955 4.40812C14.9175 3.61 14.7913 3.065 14.6063 2.5875C14.4179 2.08701 14.1227 1.63358 13.7413 1.25875C13.367 0.876651 12.9134 0.581369 12.4125 0.39375C11.9344 0.208125 11.39 0.081875 10.5919 0.045C9.79187 0.0075 9.5375 0 7.5 0ZM7.5 1.35C9.50187 1.35 9.74063 1.36 10.5312 1.39437C11.2625 1.42875 11.6594 1.55 11.9231 1.65375C12.2744 1.78937 12.5231 1.95188 12.7869 2.21375C13.0487 2.47625 13.2112 2.72563 13.3469 3.07687C13.4494 3.34062 13.5719 3.7375 13.605 4.46875C13.6406 5.26 13.6487 5.4975 13.6487 7.5C13.6487 9.5025 13.6394 9.74063 13.6025 10.5312C13.5644 11.2625 13.4425 11.6594 13.3394 11.9231C13.2174 12.2486 13.0256 12.5434 12.7775 12.7869C12.5351 13.0352 12.2405 13.2265 11.915 13.3469C11.6525 13.4494 11.2494 13.5719 10.5181 13.605C9.72188 13.6406 9.4875 13.6487 7.48125 13.6487C5.47438 13.6487 5.24 13.6394 4.44438 13.6025C3.7125 13.5644 3.30938 13.4425 3.04688 13.3394C2.72119 13.2189 2.42667 13.0269 2.185 12.7775C1.93411 12.5367 1.7417 12.2417 1.6225 11.915C1.51937 11.6525 1.39813 11.2494 1.36 10.5181C1.33188 9.73063 1.32187 9.4875 1.32187 7.49062C1.32187 5.49312 1.33188 5.24937 1.36 4.4525C1.39813 3.72125 1.51937 3.31875 1.6225 3.05625C1.75375 2.7 1.92188 2.45625 2.185 2.19313C2.44688 1.93125 2.69125 1.7625 3.04688 1.63188C3.30938 1.52813 3.70375 1.40625 4.435 1.36875C5.23187 1.34063 5.46625 1.33125 7.47188 1.33125L7.5 1.35ZM7.5 3.64875C6.99425 3.64875 6.49345 3.74837 6.02619 3.94191C5.55894 4.13545 5.13438 4.41913 4.77675 4.77675C4.41913 5.13438 4.13545 5.55894 3.94191 6.02619C3.74837 6.49345 3.64875 6.99425 3.64875 7.5C3.64875 8.00575 3.74837 8.50655 3.94191 8.97381C4.13545 9.44106 4.41913 9.86562 4.77675 10.2232C5.13438 10.5809 5.55894 10.8645 6.02619 11.0581C6.49345 11.2516 6.99425 11.3513 7.5 11.3513C8.52141 11.3513 9.50099 10.9455 10.2232 10.2232C10.9455 9.50099 11.3513 8.52141 11.3513 7.5C11.3513 6.47859 10.9455 5.499 10.2232 4.77675C9.50099 4.05451 8.52141 3.64875 7.5 3.64875ZM7.5 10C6.11875 10 5 8.88125 5 7.5C5 6.11875 6.11875 5 7.5 5C8.88125 5 10 6.11875 10 7.5C10 8.88125 8.88125 10 7.5 10ZM12.4038 3.49687C12.3951 3.72977 12.2964 3.95022 12.1286 4.11192C11.9608 4.27361 11.7368 4.36395 11.5037 4.36395C11.2707 4.36395 11.0467 4.27361 10.8789 4.11192C10.7111 3.95022 10.6124 3.72977 10.6038 3.49687C10.6038 3.25818 10.6986 3.02926 10.8674 2.86048C11.0361 2.6917 11.2651 2.59688 11.5037 2.59688C11.7424 2.59688 11.9714 2.6917 12.1401 2.86048C12.3089 3.02926 12.4038 3.25818 12.4038 3.49687Z" fill="#F5F5F5"/>
</svg>
