<svg width="15" height="15" viewBox="0 0 15 15" fill="none" xmlns="http://www.w3.org/2000/svg">
<path d="M6.87319 0C7.20302 0 7.53313 0 7.86296 0C8.03468 0.0215354 8.20696 0.0402372 8.3784 0.0654562C9.66202 0.255308 10.821 0.74127 11.83 1.55848C13.244 2.70411 14.1074 4.17673 14.3978 5.97833C14.429 6.17187 14.4534 6.36682 14.4808 6.56121V7.55098C14.4718 7.5864 14.459 7.62154 14.4539 7.65753C14.4188 7.90887 14.3998 8.16333 14.3491 8.41127C13.9957 10.1415 13.1224 11.5571 11.7232 12.6305C10.1539 13.8339 8.37046 14.2904 6.41216 14.0465C5.58021 13.9427 4.79247 13.6812 4.04638 13.2944C3.9849 13.2624 3.89167 13.2533 3.82565 13.274C2.86194 13.5747 1.9005 13.8827 0.938489 14.1881C0.63246 14.2853 0.325581 14.38 0 14.482C0.0218187 14.4151 0.0357034 14.3712 0.0504381 14.3275C0.440625 13.1757 0.827695 12.0227 1.22468 10.8731C1.27144 10.7379 1.25472 10.6402 1.18756 10.5212C0.303479 8.95532 0.0467544 7.28831 0.429291 5.53403C1.04758 2.69901 3.42044 0.49588 6.27586 0.0833079C6.47478 0.0546885 6.67427 0.0277693 6.87319 0ZM1.79764 12.7175C1.86366 12.6988 1.89936 12.6897 1.93422 12.6787C2.59246 12.471 3.25128 12.2658 3.90782 12.0527C4.03448 12.0116 4.13111 12.0238 4.24729 12.0947C5.47424 12.8439 6.80801 13.1216 8.22567 12.9153C9.83487 12.6809 11.148 11.9062 12.1338 10.6113C13.2052 9.20354 13.5849 7.60851 13.2216 5.88313C12.7897 3.83216 11.554 2.40063 9.63425 1.57492C8.57505 1.11927 7.46257 1.02463 6.32772 1.2193C5.46687 1.36693 4.67941 1.70044 3.96223 2.19633C3.21444 2.71346 2.61542 3.37029 2.16572 4.1603C1.47886 5.36741 1.26464 6.6635 1.48254 8.02788C1.62309 8.90828 1.96255 9.71416 2.47487 10.4469C2.50774 10.494 2.51454 10.5795 2.4981 10.6371C2.44143 10.8354 2.36861 11.0292 2.3023 11.225C2.1371 11.7135 1.9719 12.2021 1.79764 12.7181V12.7175Z" fill="#F5F5F5"/>
<path d="M3.87333 5.45773C3.90988 4.89441 4.12467 4.42914 4.51882 4.04178C4.68317 3.88027 4.87756 3.80659 5.10935 3.8355C5.17934 3.84428 5.25159 3.85278 5.32073 3.84456C5.50095 3.82303 5.60891 3.9137 5.6738 4.06502C5.87414 4.53114 6.07646 4.99642 6.26206 5.4685C6.29493 5.55209 6.28274 5.68669 6.23514 5.76235C6.10819 5.9641 5.95914 6.15367 5.80273 6.33417C5.69902 6.45374 5.68854 6.56114 5.76589 6.69035C6.33885 7.64867 7.13509 8.34319 8.18154 8.74499C8.32407 8.79968 8.42835 8.75378 8.51732 8.6461C8.68507 8.44265 8.8514 8.23806 9.01745 8.03319C9.16282 7.85354 9.23337 7.82549 9.44193 7.9207C9.90352 8.13124 10.3594 8.35396 10.8196 8.56789C10.9503 8.62853 10.9896 8.72658 10.9865 8.86259C10.9695 9.64778 10.5788 10.0657 9.7216 10.3193C9.37024 10.4233 9.02482 10.3777 8.68167 10.2692C8.06763 10.0751 7.45472 9.87787 6.89792 9.54464C6.0467 9.03516 5.37656 8.33384 4.79595 7.54015C4.49021 7.12191 4.18248 6.70225 4.03258 6.19787C3.96089 5.95673 3.92519 5.70482 3.87305 5.45773H3.87333Z" fill="#F5F5F5"/>
</svg>
