<svg width="33" height="48" viewBox="0 0 33 48" fill="none" xmlns="http://www.w3.org/2000/svg">
<path d="M1.99016 0.469727V7.70972H13.5901L0.910156 24.0197H9.80016L28.1102 0.469727H1.99016Z" fill="white"/>
<path d="M32.0701 11.4199H23.1801L4.87012 34.9699H30.9901V27.7199H19.3901L32.0701 11.4199Z" fill="#60DBBC"/>
<g clip-path="url(#clip0_203_4)">
<path d="M7.86191 44.9393C6.85868 44.9393 6.03809 44.1187 6.03809 43.1155C6.03809 42.1123 6.85868 41.2979 7.86191 41.2979C8.86513 41.2979 9.67955 42.111 9.67955 43.1155C9.67955 44.12 8.86636 44.9393 7.86191 44.9393ZM6.94629 43.1155C6.94629 43.6239 7.35351 44.0311 7.86191 44.0311C8.3703 44.0311 8.77752 43.6239 8.77752 43.1155C8.77752 42.6071 8.36413 42.1999 7.86191 42.1999C7.35968 42.1999 6.94629 42.6133 6.94629 43.1155Z" fill="white"/>
<path d="M10.0039 41.542L10.9121 41.2915V41.468C11.1157 41.3668 11.3465 41.3125 11.5834 41.3125C12.309 41.3125 12.9186 41.8283 13.0889 42.5329C13.1222 42.6884 13.116 42.8105 13.1222 42.9734L13.1296 44.9465H12.2214V42.9672C12.2214 42.7982 12.2411 42.7093 12.1535 42.5539C12.0387 42.3441 11.8351 42.2145 11.5834 42.2145C11.2515 42.2145 10.9393 42.4996 10.9121 42.8513V44.9465H10.0039V41.542Z" fill="white"/>
<path d="M13.4697 43.1153C13.4697 42.1121 14.2903 41.2977 15.2935 41.2977C15.6255 41.2977 15.9377 41.3853 16.2018 41.542V39L17.11 39.2369V44.9391H16.2018V44.6948C15.9377 44.8503 15.6255 44.9391 15.2935 44.9391C14.2903 44.9391 13.4697 44.1259 13.4697 43.1153ZM16.2018 43.0339C16.161 42.5662 15.7674 42.2071 15.2935 42.2071C14.7851 42.2071 14.3779 42.6143 14.3779 43.1153C14.3779 43.6163 14.7851 44.0309 15.2935 44.0309C15.7686 44.0309 16.161 43.6644 16.2018 43.2042V43.0351V43.0339Z" fill="white"/>
<path d="M20.1751 41.5422V41.2979L21.0833 41.5422V44.9319H20.1751V44.7012C19.9036 44.8505 19.5988 44.9381 19.2669 44.9381C18.2636 44.9381 17.4492 44.1249 17.4492 43.1217C17.4492 42.1184 18.2624 41.2979 19.2669 41.2979C19.5988 41.2979 19.9036 41.3855 20.1751 41.5422ZM18.3513 43.1217C18.3513 43.6239 18.7646 44.0373 19.2669 44.0373C20.4737 44.0373 20.4737 42.2061 19.2669 42.2061C18.7646 42.2061 18.3513 42.6133 18.3513 43.1217Z" fill="white"/>
<path d="M25.0487 43.1227C25.0487 44.126 24.2355 44.9391 23.231 44.9391C22.8991 44.9391 22.5869 44.8515 22.3228 44.7022V47.238H21.4072V41.5494L22.3228 41.2915V41.5494C22.5869 41.3939 22.8991 41.3051 23.231 41.3051C24.2343 41.3051 25.0487 42.1183 25.0487 43.1227ZM22.3228 43.2042C22.3636 43.6718 22.7572 44.0383 23.231 44.0383C23.7394 44.0383 24.1467 43.6311 24.1467 43.1227C24.1467 42.6143 23.7394 42.2071 23.231 42.2071C22.756 42.2071 22.3636 42.5736 22.3228 43.0413V43.2042Z" fill="white"/>
<path d="M29.0087 43.1227C29.0087 44.126 28.1955 44.9391 27.191 44.9391C26.8591 44.9391 26.5469 44.8515 26.2828 44.7022V47.238H25.3672V41.5494L26.2828 41.2915V41.5494C26.5469 41.3939 26.8591 41.3051 27.191 41.3051C28.1942 41.3051 29.0087 42.1183 29.0087 43.1227ZM26.2828 43.2042C26.3235 43.6718 26.7172 44.0383 27.191 44.0383C27.6994 44.0383 28.1066 43.6311 28.1066 43.1227C28.1066 42.6143 27.6994 42.2071 27.191 42.2071C26.7159 42.2071 26.3235 42.5736 26.2828 43.0413V43.2042Z" fill="white"/>
<path d="M1.16042 39.939V41.0138H2.88552L1 43.4324H2.32159L5.04621 39.939H1.16042Z" fill="white"/>
<path d="M5.63508 41.564H4.31349L1.58887 45.0574H5.47466V43.9813H3.74956L5.63508 41.564Z" fill="white"/>
<path d="M31.6643 43.0722C31.5569 42.9858 31.4298 42.913 31.2817 42.8537C31.1349 42.7945 30.9695 42.7464 30.7881 42.7094C30.7092 42.6958 30.6327 42.6785 30.5599 42.6575C30.487 42.6366 30.4229 42.6094 30.3661 42.5786C30.3094 42.5477 30.2649 42.5119 30.2316 42.4724C30.1983 42.433 30.1823 42.3848 30.1823 42.3281C30.1823 42.2651 30.202 42.2108 30.2415 42.1664C30.281 42.122 30.3365 42.0874 30.4081 42.0628C30.4796 42.0381 30.5648 42.0257 30.6635 42.0257C30.7622 42.0257 30.8523 42.0405 30.9436 42.0702C31.0349 42.0998 31.1201 42.143 31.2015 42.1997C31.225 42.2158 31.2472 42.2343 31.2706 42.2528L31.9481 41.9134C31.8654 41.7863 31.7654 41.679 31.6482 41.5901C31.531 41.5013 31.3903 41.4322 31.2262 41.3841C31.0621 41.3359 30.8659 41.3125 30.6376 41.3125C30.4661 41.3125 30.3007 41.3384 30.1415 41.389C29.9824 41.4408 29.8429 41.5136 29.722 41.6074C29.601 41.7012 29.5048 41.8147 29.4345 41.9443C29.3629 42.0751 29.3283 42.2182 29.3283 42.3737C29.3283 42.5193 29.3518 42.6514 29.3974 42.7686C29.4431 42.8858 29.5147 42.9907 29.6085 43.0808C29.7022 43.1721 29.8207 43.2486 29.9638 43.3115C30.1057 43.3745 30.2736 43.4275 30.4648 43.4707C30.5339 43.4843 30.6018 43.4991 30.6684 43.5176C30.7351 43.5361 30.798 43.5571 30.8572 43.5818C30.9165 43.6065 30.9683 43.6336 31.0115 43.6632C31.0547 43.6928 31.088 43.7274 31.1127 43.7669C31.1374 43.8064 31.1497 43.8508 31.1497 43.9014C31.1497 43.968 31.13 44.0236 31.0905 44.068C31.051 44.1124 30.9942 44.1469 30.9214 44.1692C30.8486 44.1926 30.7672 44.2037 30.6783 44.2037C30.4994 44.2037 30.3266 44.1655 30.16 44.0902C30.1033 44.0643 30.0465 44.0285 29.9885 43.9865L29.1494 44.2247C29.2617 44.3666 29.3888 44.49 29.5319 44.5949C29.6739 44.6985 29.8367 44.7787 30.0206 44.833C30.2045 44.8873 30.4105 44.9145 30.6388 44.9145C30.9029 44.9145 31.1374 44.8701 31.341 44.7824C31.5446 44.6948 31.705 44.5677 31.8222 44.3999C31.9394 44.2333 31.9987 44.0285 31.9987 43.7866C31.9987 43.6311 31.9691 43.4942 31.9123 43.3769C31.8543 43.2597 31.7716 43.1573 31.6643 43.0722Z" fill="white"/>
</g>
<defs>
<clipPath id="clip0_203_4">
<rect width="31" height="8.23804" fill="white" transform="translate(1 39)"/>
</clipPath>
</defs>
</svg>
