<svg width="45" height="25" viewBox="0 0 45 25" fill="none" xmlns="http://www.w3.org/2000/svg">
<path d="M26.0113 10.4045C26.703 9.73862 26.8172 8.99206 26.3637 8.3999C25.9076 7.80336 25.1394 7.64194 24.4917 8.00688C23.8053 8.39376 23.6111 9.09821 23.9644 9.9325H21.1449C21.159 9.57633 21.2785 9.15436 21.1599 8.81398C21.043 8.47886 20.7363 8.14286 20.4234 7.956C19.8372 7.60509 19.0796 7.83582 18.6718 8.38674C18.2077 9.01224 18.2974 9.65967 18.9574 10.3825C18.4415 10.5861 17.908 10.7457 17.4255 10.9993C16.602 11.4318 15.8128 11.9309 14.9998 12.3854C14.8539 12.4669 14.6597 12.5143 14.4945 12.4994C13.8397 12.4389 13.0496 13.0477 13.0382 13.7346C13.0311 14.1408 12.8729 14.4163 12.64 14.7066C11.7488 15.8181 11.0774 17.0507 10.6309 18.4043C10.6045 18.4833 10.5597 18.557 10.507 18.6666C10.3927 17.8394 9.88562 17.2841 9.22822 17.2288C8.53567 17.1709 7.89848 17.5797 7.69546 18.2122C7.50386 18.8096 7.74467 19.5088 8.25618 19.8343C8.90216 20.2457 9.58505 20.1194 10.2723 19.4395C10.1581 20.1571 10.0482 20.8458 9.93044 21.5801C6.64344 21.3467 3.35644 21.1134 0 20.8756C0.0993132 20.0949 0.163471 19.3316 0.29794 18.5816C0.785717 15.8655 1.72963 13.317 3.14814 10.9431C3.287 10.7115 3.4285 10.6361 3.69568 10.6405C4.68091 10.6571 5.34885 9.68511 5.02015 8.75959C4.97445 8.62975 4.93666 8.41482 5.00521 8.33937C5.93419 7.31647 6.8825 6.31111 7.82202 5.30488C8.66135 6.02775 9.33984 6.11197 9.95154 5.63824C10.5439 5.18031 10.6309 4.53288 10.1871 3.61613C10.7689 3.27574 11.3446 2.9108 11.9448 2.59322C13.8995 1.55804 15.9657 0.824638 18.1392 0.403546C18.2754 0.377228 18.5048 0.425478 18.5725 0.521978C18.924 1.01939 19.3942 1.29749 19.9866 1.23257C20.6079 1.16502 20.9964 0.753579 21.1862 0.161419C21.1985 0.122818 21.2196 0.0868502 21.2601 0H23.7271C23.8721 0.262305 23.9609 0.478115 24.0971 0.658833C24.7009 1.45715 25.7951 1.44575 26.3567 0.617601C26.4982 0.409687 26.6239 0.34126 26.848 0.386878C29.7026 0.967634 32.3638 2.02036 34.8379 3.63455C34.5874 4.07757 34.3993 4.54867 34.6454 5.03205C34.7781 5.29347 34.9785 5.55578 35.2158 5.72246C35.7906 6.12689 36.4163 5.99617 37.1282 5.37243C38.1996 6.27164 39.1786 7.26646 40.0426 8.37271C40.0979 8.44377 40.0786 8.60957 40.0408 8.71134C39.6655 9.72459 40.3141 10.6405 41.4057 10.658C41.5542 10.6606 41.7634 10.7677 41.8372 10.8905C43.4799 13.6197 44.4985 16.5691 44.908 19.7264C44.9546 20.0861 44.9669 20.451 44.9994 20.8765C41.7063 21.1107 38.4202 21.3441 35.1059 21.5792C34.9873 20.873 34.8704 20.1747 34.7658 19.5518C35.0699 19.7001 35.4074 19.9703 35.7703 20.0106C36.1254 20.051 36.5561 19.9361 36.8663 19.7474C37.3725 19.4404 37.5237 18.6526 37.2855 18.0938C37.0324 17.4981 36.4163 17.1481 35.7659 17.2297C35.1147 17.3113 34.6287 17.8534 34.5215 18.6623C34.314 18.1622 34.1717 17.6744 33.9238 17.249C33.3772 16.3094 32.7707 15.4049 32.2056 14.4759C32.0993 14.3013 32.0228 14.082 32.0123 13.8794C31.9727 13.0547 31.2828 12.4485 30.4549 12.531C30.3512 12.5415 30.2185 12.524 30.1385 12.4652C28.8958 11.5572 27.5581 10.8405 26.0122 10.4036L26.0113 10.4045ZM19.8275 3.10292C19.0462 3.09853 18.3879 3.73368 18.3817 4.49779C18.3756 5.28558 19.0356 5.94968 19.8266 5.95231C20.5921 5.95494 21.2618 5.30225 21.2724 4.5434C21.2838 3.74596 20.644 3.10818 19.8275 3.10292ZM5.1098 13.9478C5.10716 13.16 4.48316 12.5117 3.71326 12.4968C2.93545 12.4819 2.25432 13.1547 2.25432 13.9381C2.25432 14.7207 2.93018 15.3935 3.70623 15.3839C4.4814 15.3742 5.11243 14.7286 5.1098 13.9478ZM37.3857 13.9399C37.3875 13.16 36.7529 12.5055 35.9892 12.4994C35.1833 12.4933 34.5513 13.1258 34.5522 13.939C34.5522 14.7566 35.1771 15.3821 35.9874 15.3777C36.7521 15.3734 37.3831 14.7242 37.3848 13.9399H37.3857ZM39.9143 13.9232C39.9125 14.718 40.5629 15.3777 41.353 15.383C42.1035 15.3883 42.7715 14.7242 42.7882 13.9574C42.8049 13.1925 42.1123 12.4941 41.3416 12.5012C40.584 12.5082 39.916 13.174 39.9143 13.9232ZM10.4885 13.9688C10.5017 13.1723 9.85398 12.5003 9.06914 12.4968C8.29573 12.4933 7.65767 13.1319 7.648 13.9188C7.63833 14.7031 8.24915 15.3549 9.01905 15.383C9.7951 15.412 10.4762 14.7566 10.4885 13.9688ZM14.4584 3.10292C13.6683 3.09941 13.0276 3.71701 13.0197 4.48989C13.0118 5.30137 13.6358 5.94353 14.4373 5.94792C15.2424 5.95231 15.8752 5.32155 15.8787 4.51007C15.8822 3.74158 15.2406 3.10555 14.4575 3.10204L14.4584 3.10292ZM25.1983 3.10292C24.4311 3.10204 23.7605 3.76088 23.7622 4.51358C23.764 5.304 24.4179 5.94968 25.2168 5.94968C25.9867 5.94968 26.6397 5.30137 26.6423 4.53463C26.645 3.72754 26.0166 3.10467 25.1983 3.10292ZM29.1708 4.54779C29.1788 5.33909 29.7922 5.94968 30.5885 5.95669C31.3795 5.96459 32.0193 5.30927 32.0079 4.50305C31.9964 3.69508 31.3698 3.09327 30.5472 3.10204C29.7817 3.11082 29.1629 3.76 29.17 4.54691L29.1708 4.54779ZM14.4408 10.6475C15.2397 10.6475 15.8673 10.0422 15.8796 9.25875C15.8919 8.45517 15.26 7.81827 14.4479 7.81739C13.6358 7.81564 13.0135 8.44026 13.0197 9.25174C13.0259 10.0334 13.6507 10.6475 14.4408 10.6484V10.6475ZM5.1098 18.6649C5.1098 17.8534 4.48228 17.2218 3.67898 17.227C2.89327 17.2323 2.26663 17.856 2.2596 18.6395C2.25256 19.4474 2.88448 20.0782 3.6948 20.072C4.48667 20.0659 5.10892 19.4474 5.1098 18.6649ZM41.3574 17.227C40.5769 17.2227 39.9283 17.8464 39.9134 18.6166C39.8976 19.4009 40.5637 20.0791 41.3451 20.0747C42.1422 20.0703 42.797 19.4185 42.7935 18.6324C42.7899 17.8692 42.1378 17.2314 41.3574 17.227ZM9.04366 10.6475C9.86804 10.6501 10.4912 10.036 10.4903 9.22279C10.4885 8.42973 9.86892 7.81739 9.06563 7.81739C8.2597 7.81739 7.65415 8.41833 7.64888 9.22454C7.6436 10.0211 8.25618 10.6457 9.04278 10.6475H9.04366ZM35.954 10.6475C36.7846 10.6475 37.3989 10.036 37.3884 9.22103C37.3778 8.40955 36.7819 7.81739 35.976 7.81652C35.1472 7.81652 34.5478 8.41833 34.5531 9.24823C34.5584 10.0448 35.1622 10.6484 35.954 10.6475ZM30.592 10.6475C31.4102 10.6448 32.0175 10.0264 32.0114 9.20173C32.0052 8.42008 31.3707 7.81125 30.5665 7.81652C29.7676 7.82178 29.1673 8.4385 29.1752 9.2456C29.1832 10.0544 29.7852 10.6492 30.592 10.6475Z" fill="white"/>
<path d="M19.5307 21.6396C16.684 20.843 13.8364 20.0473 10.908 19.2279C11.2727 18.3375 11.6216 17.4848 11.9934 16.5777C14.2548 17.8445 16.4643 19.0814 18.6738 20.3193C18.6905 20.2903 18.7072 20.2614 18.7239 20.2324C16.5574 18.9481 14.391 17.6646 12.1569 16.3408C12.7282 15.5758 13.2731 14.8451 13.8707 14.0459C15.8315 15.9557 17.736 17.8103 19.6405 19.6648C19.6616 19.6438 19.6827 19.6236 19.7029 19.6025C17.8503 17.7094 15.9985 15.8162 14.0772 13.8537C14.848 13.2721 15.5845 12.7159 16.3606 12.129C17.6261 14.2529 18.8522 16.3092 20.0791 18.3664L20.1687 18.3156C18.9928 16.2215 17.8169 14.1266 16.6102 11.9781C17.4908 11.6141 18.3442 11.2605 19.2538 10.8842C20.0659 13.7713 20.8613 16.6014 21.6567 19.4315C21.6813 19.4253 21.7059 19.4183 21.7305 19.4122C21.0019 16.568 20.2733 13.7248 19.5298 10.8201C20.486 10.685 21.4009 10.5552 22.4362 10.4087V19.6569C22.496 19.6569 22.5558 19.6569 22.6155 19.6569V10.4148C23.6139 10.5561 24.528 10.685 25.4895 10.8201C24.8312 13.4011 24.187 15.9241 23.5427 18.4463C23.5726 18.4542 23.6025 18.4621 23.6315 18.47C24.3355 15.9732 25.0395 13.4765 25.7681 10.8938C26.6601 11.2588 27.5232 11.6106 28.4196 11.9764C27.0961 14.3284 25.8023 16.6268 24.5095 18.9244C24.5376 18.9402 24.5649 18.956 24.593 18.9718C25.928 16.7224 27.263 14.474 28.6499 12.1378C29.4119 12.7036 30.1528 13.2528 30.9499 13.845C28.9777 15.8601 27.0618 17.819 25.1458 19.7771L25.2047 19.8368C27.1602 17.9322 29.1166 16.0276 31.1477 14.0494C31.7313 14.8231 32.2867 15.56 32.872 16.3364C30.6344 17.662 28.4645 18.9481 26.2945 20.2342C26.3112 20.264 26.3288 20.2929 26.3455 20.3228C28.5471 19.0893 30.7487 17.8559 33.032 16.5768C33.3923 17.4506 33.7439 18.3024 34.1236 19.2209C31.5238 19.9499 28.9874 20.6614 26.4501 21.372C26.458 21.4018 26.4659 21.4325 26.4738 21.4624C29.0146 20.8158 31.5564 20.1692 34.1948 19.4981C34.3292 20.4912 34.4593 21.4588 34.5973 22.4756H25.0843C24.9894 23.3283 24.7117 24.0959 23.9725 24.5232C23.512 24.789 22.9398 25.0101 22.4222 24.9995C21.1443 24.9723 20.0914 24.0801 19.9358 22.501H10.4316C10.5617 21.4834 10.6856 20.514 10.8148 19.4973C13.7617 20.2482 16.6365 20.9807 19.5113 21.7124L19.5298 21.6396H19.5307Z" fill="white"/>
</svg>
