<svg width="24" height="24" viewBox="0 0 24 24" fill="none" xmlns="http://www.w3.org/2000/svg">
<path d="M23.8711 11.9314C23.8911 18.5214 18.5111 23.9514 11.8211 23.8814C5.25113 23.8214 -0.0888788 18.4414 0.00112119 11.7814C0.0811212 5.29136 5.33114 0.101362 11.7411 0.00136194C18.4511 -0.0986381 23.8811 5.32136 23.8711 11.9214M11.9311 23.1514C18.1211 23.1514 23.1411 18.1314 23.1411 11.9414C23.1411 5.75136 18.1211 0.731363 11.9311 0.721363C5.74111 0.721363 0.711122 5.75136 0.721122 11.9414C0.721122 18.1314 5.75111 23.1514 11.9311 23.1514Z" fill="white"/>
<path d="M22.1117 11.9415C22.1117 17.5515 17.5617 22.1115 11.9417 22.1215C6.33171 22.1215 1.76172 17.5615 1.76172 11.9415C1.76172 6.3315 6.3317 1.7615 11.9317 1.7715C17.5617 1.7715 22.1117 6.3215 22.1117 11.9415ZM2.49173 11.9415C2.49173 17.1815 6.7217 21.3915 11.9617 21.3915C17.1617 21.3915 21.3817 17.1415 21.3817 11.9215C21.3817 6.71149 17.1317 2.4915 11.8917 2.5015C6.71172 2.5015 2.48173 6.7615 2.49173 11.9415Z" fill="white"/>
<path d="M17.7917 11.6014C14.9717 9.97136 12.1517 8.34136 9.33173 6.72136C9.27173 6.68136 9.19171 6.66137 9.16171 6.65137C8.91171 6.65137 8.76172 6.82136 8.76172 7.05136C8.76172 10.3114 8.76172 13.5714 8.76172 16.8214C8.76172 17.1614 9.05171 17.3214 9.34171 17.1514C12.1617 15.5214 14.9817 13.9014 17.7917 12.2714C18.0917 12.0914 18.0917 11.7714 17.7917 11.5914" fill="white"/>
</svg>
