<svg width="36" height="36" viewBox="0 0 36 36" fill="none" xmlns="http://www.w3.org/2000/svg">
<g clip-path="url(#clip0_161_1292)">
<path d="M17.59 0C7.88 0 0 7.87 0 17.59C0 27.31 7.88 35.18 17.59 35.18C27.3 35.18 35.18 27.31 35.18 17.59C35.18 7.87 27.31 0 17.59 0ZM18.45 5.84C18.74 5.61 19.1 5.46 19.55 5.37C20.42 5.2 21.26 5.37 22.14 5.92C22.91 6.39 23.51 7.04 23.99 7.61C24.31 7.98 24.62 8.36 24.94 8.73C25.22 9.06 25.49 9.39 25.77 9.72C26.12 10.12 26.25 10.48 26.2 10.88C26.14 11.36 25.9 11.71 25.48 11.93C25.4 11.97 25.29 11.98 25.18 11.98H25.13C24.48 12.03 23.84 12.14 23.23 12.32C23.23 12.27 23.25 12.23 23.26 12.19C23.34 11.95 23.42 11.71 23.5 11.48C23.64 11.06 23.78 10.65 23.92 10.23C23.98 10.05 24.02 9.85 24.05 9.68C24.1 9.4 24.02 9.14 23.83 8.96C23.69 8.82 23.49 8.75 23.29 8.75C23.23 8.75 23.16 8.75 23.1 8.77C22.97 8.79 22.84 8.84 22.72 8.88H22.7C22.61 8.92 22.57 8.94 22.49 8.97L22.41 8.99L22.27 9.06C21.3 9.51 20.09 9.79 19.73 9.82L19.75 9.78C19.79 9.69 19.82 9.6 19.86 9.52C20.18 8.85 20.03 8.39 19.34 7.96C19.16 7.86 18.98 7.76 18.79 7.67C18.66 7.6 18.52 7.53 18.39 7.45C18.39 7.45 18.41 7.45 18.41 7.44C18.52 7.4 18.63 7.37 18.74 7.35C19.24 7.29 19.67 7.3 20.06 7.38C20.58 7.49 20.85 7.9 21.03 8.24C21.09 8.34 21.07 8.46 20.98 8.54C20.85 8.67 20.71 8.79 20.57 8.91C20.52 8.96 20.46 9 20.41 9.05C20.38 9.07 20.36 9.09 20.33 9.11L20.19 9.24L20.31 9.3H20.36C20.51 9.26 20.86 9.09 21.2 8.94C21.47 8.81 21.72 8.7 21.87 8.64L21.95 8.62L21.91 8.55C21.85 8.46 21.79 8.35 21.74 8.2C21.72 8.14 21.69 8.08 21.67 8.02C21.62 7.88 21.57 7.74 21.51 7.61C21.22 6.99 20.74 6.61 20.1 6.49C19.89 6.46 19.67 6.48 19.46 6.5C19.4 6.5 19.35 6.5 19.29 6.52C19 6.54 18.72 6.54 18.5 6.33C18.4 6.24 18.35 6.15 18.35 6.07C18.35 5.99 18.4 5.91 18.5 5.84M22.16 10.76C21.84 10.96 21.51 11.17 21.28 11.5C21.02 11.88 21.08 12.3 21.17 12.66C21.22 12.85 21.26 13.01 21.28 13.16C21.3 13.28 21.27 13.37 21.16 13.45C20.83 13.71 20.5 13.97 20.17 14.24C20.14 14.26 20.1 14.3 20.05 14.34C19.89 14.47 19.6 14.73 19.46 14.73H19.44C19.44 14.73 19.44 14.73 19.44 14.72L19.39 14.69C19.33 14.63 19.27 14.58 19.22 14.53C19.13 14.43 19 14.34 18.91 14.24C18.79 14.11 18.55 13.9 18.41 13.78C18.06 13.51 17.81 13.37 17.3 13.05C16.67 12.66 16.07 12.35 15.56 11.9C14.99 11.4 14.6 10.74 14.39 9.88C14.29 9.48 14.19 9.07 14.22 8.66C14.24 8.28 14.62 7.85 15 7.79C15.02 7.78 15.04 7.78 15.06 7.78C15.12 7.78 15.18 7.8 15.22 7.84C15.27 7.88 15.3 7.95 15.3 8.03C15.3 8.15 15.28 8.24 15.25 8.32C14.95 9 15.12 9.64 15.3 10.12C15.51 10.67 15.86 11.18 16.34 11.63C16.64 11.91 16.95 12.18 17.26 12.44C17.49 12.63 17.74 12.84 17.97 13.05C18.19 13.25 18.43 13.47 18.68 13.71L18.95 13.97L18.78 13.64C18.55 13.19 18.33 12.8 18 12.51C16.95 11.61 16.26 10.77 15.8 9.85C15.71 9.66 15.68 9.57 15.68 9.45C16.55 9.92 17.32 10.2 18.11 10.33C19.39 10.54 20.64 10.37 21.84 9.8C22.07 9.7 22.32 9.58 22.58 9.44C22.73 9.36 22.89 9.35 23.04 9.4C23.16 9.45 23.24 9.53 23.28 9.66C23.36 9.9 23.36 10.12 23.28 10.33C23.19 10.59 23.11 10.84 23.02 11.09C22.86 11.56 22.69 12.04 22.53 12.51C22.51 12.57 22.46 12.63 22.4 12.67C22.23 12.78 22.05 12.88 21.86 12.98L21.71 13.07C21.54 12.18 21.93 11.45 22.35 10.77L22.49 10.54L22.14 10.76H22.16ZM19.02 15.09C19.02 15.09 18.99 15.14 18.95 15.16C18.76 15.25 18.58 15.34 18.39 15.43C17.75 15.73 17.08 16.04 16.41 16.33C16.03 16.49 15.65 16.48 15.31 16.29C15.08 16.16 14.9 15.96 14.75 15.63C14.5 15.1 14.38 14.52 14.39 13.87C14.39 13.52 14.41 13.08 14.56 12.67C14.61 12.55 14.69 12.43 14.77 12.32C14.79 12.3 14.81 12.29 14.83 12.28C14.83 12.28 14.88 12.29 14.91 12.32C15.4 12.73 15.97 12.99 16.57 13.24C17.34 13.57 18.06 14.03 18.71 14.62C18.8 14.7 18.89 14.81 18.98 14.96C19.01 15.01 19.02 15.06 19.01 15.09M15.93 7.79C15.91 7.7 15.93 7.68 15.93 7.68C15.93 7.68 15.96 7.67 16.05 7.67C16.19 7.67 16.32 7.68 16.46 7.68C16.73 7.68 17.01 7.69 17.28 7.7C17.94 7.74 18.53 7.94 19.05 8.29C19.11 8.33 19.17 8.38 19.23 8.43C19.4 8.59 19.49 8.78 19.48 8.97C19.48 9.16 19.37 9.34 19.18 9.48C18.89 9.71 18.53 9.73 18.25 9.72C18.09 9.71 17.92 9.69 17.75 9.65C17.57 9.6 17.48 9.48 17.51 9.3C17.53 9.15 17.67 9.03 17.84 9.01H17.88C18.02 9.01 18.14 9.07 18.24 9.19C18.28 9.23 18.31 9.27 18.35 9.32L18.43 9.42L18.54 9.48V9.39C18.54 9.39 18.54 9.27 18.54 9.25C18.54 9.19 18.53 9.12 18.5 9.06C18.33 8.71 17.66 8.37 17.27 8.44C17.1 8.46 16.96 8.55 16.89 8.68C16.82 8.81 16.81 8.97 16.87 9.13C16.88 9.16 16.89 9.19 16.91 9.22C16.92 9.25 16.94 9.28 16.95 9.31C16.95 9.32 16.95 9.33 16.95 9.35H16.9C16.82 9.32 16.74 9.29 16.66 9.25L16.45 9.16C16.23 9.07 16 8.97 15.78 8.86C15.68 8.82 15.62 8.77 15.61 8.71C15.6 8.66 15.63 8.59 15.71 8.51C15.92 8.27 15.99 8.04 15.94 7.79M14.1 16.72C13.79 16.92 13.63 17.24 13.76 18.18C13.73 18.17 13.71 18.16 13.68 18.15C13.18 17.93 12.76 17.59 12.41 17.3L12.23 17.14C11.85 16.82 11.45 16.48 11.06 16.16C10.34 15.58 9.49 15.14 8.48 14.83C8.27 14.76 8.17 14.7 8.14 14.62C8.11 14.55 8.15 14.43 8.27 14.24C8.77 13.44 9.48 12.77 10.44 12.19C10.7 12.03 10.93 11.96 11.16 11.95H11.18C11.35 11.95 11.48 12.01 11.57 12.11C11.69 12.26 11.84 12.43 11.94 12.62C12.2 13.09 12.46 13.56 12.71 14.03C13 14.56 13.29 15.09 13.59 15.62C13.66 15.76 13.75 15.9 13.86 16.08L13.98 16.26V16.05C13.98 15.86 13.97 15.74 13.96 15.64C13.93 15.41 13.88 15.29 13.85 15.21C13.26 13.82 12.76 12.66 12.07 11.53C11.89 11.22 11.68 10.93 11.48 10.64C11.33 10.43 11.18 10.21 11.03 9.99C10.64 9.39 10.44 8.85 10.39 8.31C10.32 7.48 10.56 6.87 11.15 6.42C11.35 6.27 11.6 6.2 11.85 6.13C11.9 6.13 11.96 6.1 12.01 6.09C13.23 5.74 14.36 5.57 15.45 5.57H15.53C16.09 5.57 16.53 5.65 16.91 5.83C17.32 6.02 17.6 6.32 17.72 6.74C17.74 6.82 17.74 6.84 17.74 6.84C17.74 6.85 17.72 6.86 17.65 6.86C17.06 6.91 16.43 6.92 15.83 6.63C15.15 6.29 14.47 6.23 13.8 6.45C13.58 6.52 13.38 6.63 13.18 6.75C12.84 6.95 12.51 7.16 12.18 7.37L12.06 7.45C12.01 7.48 11.96 7.52 11.92 7.56C11.9 7.58 11.88 7.59 11.87 7.61L11.65 7.83L11.91 7.78L11.96 7.76C12.02 7.76 12.08 7.73 12.13 7.72C12.26 7.69 12.39 7.66 12.52 7.61C12.76 7.53 12.99 7.44 13.22 7.35L13.44 7.27C13.7 7.17 13.98 7.18 14.29 7.21C14.27 7.25 14.25 7.28 14.22 7.3C13.78 7.74 13.53 8.26 13.49 8.85C13.46 9.24 13.54 9.63 13.73 10.05C13.89 10.41 14.05 10.78 14.2 11.13L14.23 11.21C14.36 11.53 14.37 11.86 14.23 12.19C14.18 12.32 14.12 12.46 14.06 12.6C14.05 12.62 14.04 12.65 14.03 12.67C13.85 12.02 13.49 11.46 13.14 10.94C12.79 10.42 12.53 9.97 12.43 9.43C12.42 9.37 12.41 9.31 12.4 9.25C12.39 9.17 12.37 9.08 12.35 8.99C12.3 8.79 12.17 8.68 11.97 8.66H11.92V8.71C11.74 9.22 11.59 9.82 11.98 10.4C12.08 10.54 12.18 10.68 12.29 10.82C12.37 10.93 12.45 11.03 12.53 11.14C13.24 12.14 13.68 13.27 13.85 14.48C13.87 14.62 14.04 15.08 14.23 15.56C14.38 15.95 14.53 16.36 14.58 16.52C14.49 16.55 14.37 16.59 14.28 16.62L14.09 16.72H14.1ZM14.59 17.5C14.62 17.32 14.74 17.21 14.92 17.18C16.43 16.91 17.92 16.33 19.48 15.39C20 15.08 20.51 14.75 21.01 14.43C21.41 14.16 21.82 13.9 22.24 13.64C23.49 12.87 24.68 12.49 25.89 12.49C26.28 12.49 26.66 12.56 27.02 12.68C27.19 12.75 27.31 12.82 27.4 12.92L27.18 12.96C26.95 13.01 26.73 13.05 26.52 13.09L26.4 13.11C25.39 13.28 24.35 13.47 23.37 13.85C22.71 14.11 22.21 14.42 21.8 14.82C21.79 14.84 21.77 14.86 21.76 14.87C21.75 14.89 21.75 14.91 21.75 14.93L21.73 15.05L21.83 15.02C21.98 14.96 22.12 14.9 22.27 14.84C22.6 14.71 22.92 14.59 23.24 14.48C23.69 14.33 24.18 14.2 24.69 14.09C25.03 14.02 25.37 13.97 25.73 13.91C25.85 13.89 25.98 13.87 26.1 13.85C26.1 13.85 26.1 13.87 26.08 13.88C26.03 13.97 25.99 14.05 25.95 14.12C25.48 14.87 24.89 15.62 24.09 16.49C23.2 17.46 22.24 18.3 21.25 18.97C20.33 19.6 19.57 19.95 18.79 20.1C17.35 20.39 16.11 20.06 15.1 19.1C14.64 18.67 14.47 18.13 14.58 17.5M28.3 17.11C28 17.26 27.7 17.4 27.4 17.53L27.11 17.66C26.86 17.78 26.61 17.89 26.36 18C26.11 18.12 25.86 18.23 25.62 18.34C25.21 18.53 24.9 18.85 24.6 19.16L24.53 19.24C24.15 19.63 23.78 20.04 23.42 20.44L23.29 20.58C22.77 21.15 22.15 21.34 21.43 21.16C21.12 21.08 20.83 20.99 20.6 20.92L20.52 20.89V20.98C20.52 21.13 20.52 21.29 20.52 21.44H20.3V29.47C20.3 29.47 20.28 29.96 19.83 29.96C19.69 29.96 19.58 29.92 19.5 29.84C19.37 29.71 19.38 29.51 19.38 29.51V21.44H18.09V29.42C18.09 29.42 18.04 29.96 17.58 29.96C17.12 29.96 17.04 29.47 17.03 29.46V21.43H15.72V29.6C15.72 29.6 15.58 29.97 15.22 29.96C14.84 29.95 14.73 29.48 14.73 29.47V21.49H14.57C14.57 21.02 14.58 20.48 14.63 19.95C14.66 19.97 14.7 19.98 14.74 19.99C14.77 20 14.81 20.01 14.84 20.01C15.9 20.91 17.4 20.99 18.47 20.9C18.79 20.87 19.12 20.78 19.43 20.69C19.57 20.64 19.72 20.6 19.87 20.56C20.8 20.22 21.69 19.76 22.5 19.21C23.81 18.31 24.89 17.17 25.71 15.83C25.78 15.71 25.86 15.59 25.94 15.48C25.97 15.43 26.01 15.38 26.04 15.33C26.1 15.23 26.18 15.21 26.29 15.24C26.92 15.44 27.59 15.7 28.14 16.15C28.27 16.26 28.38 16.36 28.46 16.47C28.56 16.59 28.59 16.72 28.57 16.83C28.54 16.94 28.46 17.04 28.32 17.11" fill="white"/>
</g>
<defs>
<clipPath id="clip0_161_1292">
<rect width="35.18" height="35.18" fill="white"/>
</clipPath>
</defs>
</svg>
