<svg width="30" height="29" viewBox="0 0 30 29" fill="none" xmlns="http://www.w3.org/2000/svg">
<path d="M23.8972 14.0575C21.5786 13.6136 19.4625 14.0728 17.5539 15.5707C17.5344 15.4453 17.5173 15.3445 17.5018 15.2437C17.3131 13.9957 16.6346 13.0951 15.6534 12.4037C15.1189 12.0267 14.5169 11.8242 13.9083 11.6302C13.1078 11.3752 12.3064 11.1201 11.5116 10.8456C10.9633 10.6559 10.5085 10.311 10.1953 9.80014C9.70549 9.00119 9.57532 8.14718 10.0309 7.29401C10.4841 6.44677 11.2106 5.99942 12.1511 6.00112C13.1062 6.00281 13.9588 6.72551 14.1955 7.68882C14.2631 7.96248 14.3395 8.23359 14.4184 8.50471C14.595 9.11134 15.0099 9.40702 15.5981 9.46294C16.6281 9.56122 17.3953 8.66654 17.1829 7.61426C16.9877 6.64672 16.5036 5.85455 15.8153 5.18777C15.4175 4.80227 14.9741 4.48286 14.4917 4.23208C14.0385 3.99655 13.5544 3.83472 13.0525 3.74746C12.9597 3.73136 12.9288 3.69578 12.9329 3.59919C12.9402 3.43144 12.9386 3.26368 12.9345 3.09508C12.9223 2.56471 12.5033 2.14363 11.994 2.14872C11.4823 2.1538 11.0853 2.56132 11.0763 3.09593C11.0731 3.26369 11.0706 3.43229 11.0763 3.60004C11.0796 3.69493 11.0495 3.73136 10.9567 3.74831C9.53058 4.0118 8.42332 4.79804 7.59349 6.01552C7.22006 6.56369 7.01749 7.19064 6.92881 7.85573C6.83037 8.59452 6.85315 9.32908 7.00203 10.0594C7.18345 10.9507 7.66101 11.6505 8.30698 12.2419C9.01396 12.89 9.83973 13.3187 10.7167 13.6415C11.4278 13.9033 12.1535 14.1228 12.8694 14.3685C13.2827 14.5108 13.6602 14.7251 14.0092 15.0013C14.4225 15.3284 14.6528 15.7529 14.7073 16.2875C14.7699 16.9017 14.6861 17.4872 14.3029 17.9726C13.6805 18.7614 12.8654 19.1189 11.8842 19.0207C11.3098 18.963 10.777 18.7775 10.3238 18.3886C10.0277 18.1336 9.80719 17.815 9.63878 17.4592C9.48013 17.1237 9.31091 16.7899 9.19702 16.4374C8.8781 15.4495 7.55037 15.3064 6.90847 15.9206C6.50006 16.312 6.35199 16.7856 6.43904 17.3491C6.54481 18.0311 6.86128 18.6114 7.2461 19.1571C7.84976 20.0145 8.62508 20.6304 9.6103 20.9329C10.0545 21.0693 10.5101 21.1676 10.9624 21.276C11.0397 21.2946 11.0723 21.315 11.0706 21.4014C11.0666 21.5785 11.0706 21.7564 11.0755 21.9335C11.091 22.4486 11.5043 22.8587 12.0046 22.8587C12.509 22.8587 12.9182 22.452 12.9313 21.9343C12.9361 21.7335 12.9313 21.5327 12.9313 21.3421C13.421 21.2243 13.9026 21.1091 14.3989 20.9896C14.2509 22.2241 14.3379 23.4517 14.7105 24.6768C13.3112 25.0242 11.9078 25.0818 10.4963 24.8963C7.72691 24.5328 5.36108 23.2984 3.41585 21.2252C-0.738187 16.7933 -1.07093 10.0458 2.24026 5.23352C5.57993 0.380527 11.7093 -1.35377 16.9519 1.12017C22.1676 3.5814 24.5391 9.13675 23.8972 14.0575Z" fill="white"/>
<path d="M16.0002 22.063C15.9689 18.2478 18.9698 15.1065 22.8131 15.0026C26.6697 14.8987 29.9006 17.9187 29.9978 21.8436C30.0926 25.663 27.0671 28.9082 23.1643 28.9981C19.1932 29.0896 16.0217 25.8972 16.0002 22.063ZM21.7051 22.8846C21.4347 22.6091 21.1742 22.3427 20.9121 22.0771C20.5444 21.705 20.1767 21.3338 19.8082 20.9626C19.5477 20.7003 19.2781 20.7003 19.0151 20.9601C18.7496 21.2224 18.4834 21.4839 18.2195 21.7479C17.9706 21.9979 17.9714 22.2717 18.2187 22.5192C18.6878 22.9878 19.1585 23.4547 19.6268 23.924C20.194 24.4924 20.7587 25.0632 21.3267 25.6308C21.5633 25.8675 21.8469 25.8741 22.0687 25.6522C22.8346 24.8867 23.5988 24.1204 24.3638 23.354C25.5023 22.2148 26.6417 21.0764 27.7777 19.9348C28.0259 19.6848 28.0193 19.4151 27.7695 19.1618C27.5172 18.9061 27.2633 18.6512 27.0077 18.3988C26.7241 18.1175 26.4661 18.1183 26.1833 18.4004C24.8486 19.7335 23.5147 21.0674 22.18 22.4012C22.025 22.5555 21.8733 22.7131 21.7035 22.8855L21.7051 22.8846Z" fill="white"/>
</svg>
