<svg width="47" height="8" viewBox="0 0 47 8" fill="none" xmlns="http://www.w3.org/2000/svg">
<path d="M1.0638 2.73802L0.570937 2.74534C0.50262 2.6087 0.431862 2.51599 0.334266 2.45743C0.23423 2.39643 0.139075 2.37203 0.0487982 2.37203C0.0439184 2.36471 0.041478 2.37203 0.0243987 2.37203C0.00487943 2.36471 0 2.37203 0 2.37203V2.31348H1.33707V2.37203H1.28339C1.20531 2.36471 1.14187 2.40375 1.08332 2.46719C1.02476 2.52331 1.01988 2.6209 1.0638 2.74046M3.6013 2.74046C3.64277 2.6209 3.63789 2.53063 3.5769 2.46719C3.5159 2.39643 3.45002 2.37203 3.37438 2.37203H3.32071V2.31348H4.51382V2.37203C4.51382 2.37203 4.50406 2.37203 4.48698 2.37203C4.46502 2.36471 4.46014 2.37203 4.46014 2.37203C4.36986 2.36471 4.27959 2.40131 4.18199 2.45743C4.08196 2.51111 4.00144 2.61114 3.938 2.74534L3.59886 2.73802L3.6013 2.74046ZM2.23983 6.55403L2.18615 6.13924L3.76721 2.33056H4.12343L2.5131 5.94161C2.5131 5.94161 2.50334 5.96601 2.48138 6.01725C2.45698 6.06361 2.43258 6.12704 2.4033 6.1978C2.37402 6.26124 2.34719 6.33931 2.32523 6.40519C2.29595 6.46863 2.29351 6.52231 2.29351 6.55403H2.23983ZM2.23983 6.55403L0.397704 2.34764H0.902764L2.35939 5.99041L2.23983 6.55403Z" fill="white"/>
<path d="M5.63426 2.74289V2.30859H6.11004V2.36715C6.11004 2.36715 6.09296 2.36715 6.06856 2.36715C6.04416 2.35983 6.03196 2.36715 6.03196 2.36715C5.92217 2.35983 5.84165 2.40375 5.76845 2.47694C5.68794 2.54526 5.65622 2.63798 5.65378 2.74045H5.6367M5.6367 6.03188H5.65378C5.65622 6.13436 5.6977 6.2222 5.76845 6.29539C5.83433 6.36859 5.92948 6.40519 6.03196 6.40519C6.02464 6.40031 6.04416 6.40519 6.06856 6.40519C6.09052 6.40031 6.1076 6.40519 6.11004 6.40519V6.46374H5.63426V6.02944L5.6367 6.03188ZM5.28535 2.74045H5.26827C5.26095 2.63554 5.22679 2.55014 5.1536 2.47694C5.07552 2.39887 4.99256 2.36715 4.89009 2.36715C4.88277 2.35983 4.87789 2.36715 4.85105 2.36715C4.82421 2.35983 4.81201 2.36715 4.81201 2.36715V2.30859H5.28779V2.74289L5.28535 2.74045ZM5.28535 6.03188V6.46618H4.80957V6.40763C4.80957 6.40763 4.82177 6.40763 4.84861 6.40763C4.87301 6.40275 4.88765 6.40763 4.88765 6.40763C4.98524 6.40275 5.07796 6.37103 5.15116 6.29783C5.21947 6.22463 5.26339 6.1368 5.26583 6.03432H5.28291L5.28535 6.03188ZM5.65378 2.30615V6.46618H5.26827V2.30615H5.65378Z" fill="white"/>
<path d="M7.65867 2.74289V2.30859H8.13445V2.36715C8.13445 2.36715 8.11737 2.36715 8.09297 2.36715C8.06858 2.35983 8.05638 2.36715 8.05638 2.36715C7.94658 2.35983 7.86606 2.40375 7.79287 2.47694C7.71235 2.54526 7.68063 2.63798 7.67819 2.74045H7.66111M7.66111 6.03188H7.67819C7.68063 6.13436 7.71967 6.2222 7.79287 6.29539C7.85874 6.36859 7.9539 6.40519 8.05638 6.40519C8.04906 6.40031 8.06858 6.40519 8.09297 6.40519C8.11493 6.40031 8.13201 6.40519 8.13445 6.40519V6.46374H7.65867V6.02944L7.66111 6.03188ZM7.30977 2.74045H7.29269C7.28537 2.63554 7.24877 2.55014 7.17801 2.47694C7.09993 2.39887 7.01698 2.36715 6.9145 2.36715C6.90718 2.35983 6.9023 2.36715 6.87546 2.36715C6.84862 2.35983 6.83642 2.36715 6.83642 2.36715V2.30859H7.3122V2.74289L7.30977 2.74045ZM7.30977 6.03188V6.46618H6.83398V6.40763C6.83398 6.40763 6.84618 6.40763 6.87302 6.40763C6.89742 6.40275 6.91206 6.40763 6.91206 6.40763C7.00966 6.40275 7.10237 6.37103 7.17557 6.29783C7.24389 6.22463 7.28781 6.1368 7.29025 6.03432H7.30733L7.30977 6.03188ZM7.67819 2.30615V6.46618H7.29269V2.30615H7.67819ZM10.323 2.30615V2.35983H10.2986C10.1645 2.35495 10.0449 2.38667 9.93266 2.43791C9.81555 2.48182 9.72283 2.5599 9.64475 2.65262L9.27145 2.64042C9.32024 2.5721 9.33244 2.50866 9.29829 2.45011C9.25925 2.38667 9.20801 2.35983 9.12993 2.35983H9.07137V2.30615H10.3255H10.323ZM9.91314 2.34763L8.13689 4.39715H7.8685L9.50324 2.34763H9.91314ZM8.19545 4.17756L9.88142 6.1612C9.9595 6.23683 10.0498 6.30027 10.1327 6.33931C10.2108 6.37103 10.323 6.40031 10.445 6.40519V6.46374H10.1888C10.1474 6.46374 10.0937 6.46131 10.0181 6.45399C9.94242 6.44179 9.86678 6.43447 9.78139 6.41251C9.69111 6.38323 9.61059 6.35639 9.5252 6.31247C9.4398 6.26123 9.36416 6.20511 9.29585 6.1246C9.29097 6.1246 9.26169 6.08312 9.19093 6.00016C9.11773 5.91721 9.03234 5.80985 8.92254 5.68054C8.8103 5.5439 8.69807 5.40971 8.57851 5.26087C8.45408 5.10716 8.34184 4.97297 8.23449 4.84121C8.12469 4.70702 8.03686 4.60454 7.9661 4.52158C7.89534 4.43619 7.86118 4.39715 7.86118 4.39715L8.18813 4.17756H8.19545Z" fill="white"/>
<path d="M11.563 2.74289V2.30859H12.0387V2.36715C12.0387 2.36715 12.0217 2.36715 11.9973 2.36715C11.9729 2.35983 11.9631 2.36715 11.9631 2.36715C11.8533 2.35983 11.7728 2.40375 11.6996 2.47694C11.6191 2.54526 11.5874 2.63798 11.5825 2.74045H11.5654M11.5654 6.03188H11.5825C11.5849 6.13436 11.6264 6.2222 11.6996 6.29539C11.7655 6.36859 11.8606 6.40519 11.9631 6.40519C11.9558 6.40031 11.9753 6.40519 11.9973 6.40519C12.0192 6.40031 12.0363 6.40519 12.0387 6.40519V6.46374H11.563V6.02944L11.5654 6.03188ZM11.2141 2.74045H11.197C11.1897 2.63554 11.1531 2.55014 11.0823 2.47694C11.0042 2.39887 10.9213 2.36715 10.8188 2.36715C10.8115 2.35983 10.8066 2.36715 10.7798 2.36715C10.7529 2.35983 10.7407 2.36715 10.7407 2.36715V2.30859H11.2165V2.74289L11.2141 2.74045ZM11.2141 6.03188V6.46618H10.7383V6.40763C10.7383 6.40763 10.7505 6.40763 10.7773 6.40763C10.8017 6.40275 10.8164 6.40763 10.8164 6.40763C10.914 6.40275 11.0067 6.37103 11.0799 6.29783C11.1482 6.22463 11.1921 6.1368 11.1945 6.03432H11.2116L11.2141 6.03188ZM11.5825 2.30615V6.46618H11.197V2.30615H11.5825Z" fill="white"/>
<path d="M14.1297 3.66283H14.115C14.115 3.58476 14.0857 3.51888 14.0296 3.46276C13.9686 3.39932 13.9052 3.3798 13.8271 3.3798C13.8247 3.37736 13.8174 3.3798 13.8003 3.3798C13.7808 3.37736 13.7734 3.3798 13.7734 3.3798L13.7686 3.33589H14.1272V3.66283M14.1272 6.14177V6.46872H13.7686V6.4248C13.7686 6.4248 13.7783 6.4248 13.7978 6.4248C13.8149 6.4248 13.8271 6.4248 13.8271 6.4248C13.9003 6.4248 13.9711 6.39796 14.0272 6.34185C14.0784 6.28085 14.1126 6.21985 14.115 6.14177H14.1297H14.1272ZM15.6131 3.25537V3.38469L15.0666 3.33589C15.13 3.33101 15.2008 3.33101 15.274 3.32369C15.3423 3.31393 15.4155 3.30417 15.4765 3.29197C15.5375 3.27245 15.5838 3.26757 15.6107 3.25537H15.6131ZM15.6131 3.46032V3.81655H15.5692V3.73603C15.5643 3.66283 15.5448 3.60184 15.4936 3.5506C15.4374 3.49448 15.3813 3.47008 15.3057 3.46764V3.45788H15.6156L15.6131 3.46032ZM15.4204 4.57048V4.86571H15.1617V4.85595C15.2203 4.84619 15.2715 4.82911 15.313 4.78763C15.3521 4.74371 15.3765 4.69247 15.3765 4.63391V4.57048H15.4204ZM15.4204 4.98282V5.27805H15.3765V5.20973C15.3691 5.14629 15.3545 5.0975 15.313 5.05602C15.2691 5.0121 15.2203 4.99014 15.1617 4.99014V4.98038H15.4204V4.98282ZM15.8864 5.74407L15.6278 6.46872H14.8836L15.0446 6.32965C15.2008 6.32721 15.3325 6.30525 15.4326 6.25645C15.5302 6.20521 15.6131 6.13689 15.6766 6.04906C15.7376 5.9539 15.7937 5.85875 15.8425 5.74407H15.8864ZM15.6131 3.33589V3.47496H14.3907V3.33589H15.6131ZM15.4204 4.85839V4.99258H14.3907V4.85839H15.4204ZM15.6131 6.32965V6.46872H14.3907V6.32965H15.6131ZM14.4054 3.33589V6.46872H14.115V3.33589H14.4054Z" fill="white"/>
<path d="M19.2852 6.23673H19.3169V6.46852H19.0583V6.42704H19.1241C19.19 6.42216 19.2388 6.40264 19.2608 6.36117C19.2754 6.31481 19.29 6.27821 19.2852 6.23673ZM19.5218 6.16841H19.6121C19.6219 6.24405 19.6609 6.31237 19.7195 6.35629C19.7731 6.39776 19.8463 6.42216 19.922 6.42216C19.9147 6.42216 19.9342 6.42216 19.9561 6.42216C19.9757 6.42216 19.9903 6.42216 19.9903 6.42216V6.46608H19.5243V6.16597L19.5218 6.16841ZM19.2534 3.72119L19.656 6.46852H19.3169L19.0265 4.21649L19.2144 3.72119H19.2534ZM16.8916 3.72119L18.1091 6.06106L18.0067 6.53196L16.8062 4.21405L16.8916 3.72119ZM16.8477 3.72119H16.8916L16.9819 3.9847L16.7037 6.46852H16.4573L16.8453 3.72119H16.8477ZM16.7281 6.23673C16.7257 6.27821 16.7355 6.32457 16.7599 6.36361C16.7818 6.39776 16.8282 6.4246 16.8941 6.42704H16.9575V6.46852H16.7013V6.23673H16.7281ZM16.594 6.16841V6.46852H16.1279V6.4246C16.1279 6.4246 16.1401 6.4246 16.1621 6.4246C16.1767 6.4246 16.1962 6.4246 16.1962 6.4246C16.2719 6.4246 16.3426 6.40264 16.3988 6.35872C16.4524 6.30993 16.4915 6.25137 16.4988 6.17085H16.594V6.16841ZM19.2168 3.72119L19.2559 4.01154L18.2092 6.0757C18.2092 6.0757 18.197 6.1001 18.175 6.15133C18.1482 6.19281 18.1286 6.26357 18.1043 6.33189C18.0774 6.39776 18.0628 6.46852 18.0506 6.53196H18.0067L17.9432 6.25137L19.2144 3.72363L19.2168 3.72119Z" fill="white"/>
<path d="M20.8585 6.18309H20.8683C20.8634 6.24653 20.8976 6.30509 20.9464 6.35388C20.9952 6.40024 21.0562 6.42464 21.1269 6.42464C21.1269 6.42464 21.1415 6.42464 21.1611 6.42464C21.1733 6.42464 21.1903 6.42464 21.1903 6.42464V6.46856H20.8024L20.861 6.18309M20.5975 4.06526H20.5877C20.5828 3.99206 20.5584 3.94082 20.5096 3.89446C20.4608 3.84566 20.3998 3.82614 20.3291 3.82614C20.3242 3.81883 20.3193 3.82614 20.2973 3.82614C20.2729 3.81883 20.2656 3.82614 20.2656 3.82614V3.78223H20.656L20.5975 4.06282V4.06526ZM20.5975 6.18309L20.656 6.46856H20.2656V6.42464C20.2656 6.42464 20.2754 6.42464 20.2973 6.42464C20.3144 6.42464 20.3291 6.42464 20.3291 6.42464C20.3949 6.42464 20.4608 6.40024 20.5096 6.35388C20.5584 6.30509 20.5853 6.24897 20.5877 6.18309H20.5975ZM20.8756 3.78467V6.46856H20.5901V3.78467H20.8756ZM20.817 3.78467H21.3123C21.5222 3.77735 21.7027 3.81395 21.854 3.87738C22.0053 3.9335 22.1248 4.02622 22.2078 4.14089C22.2859 4.25069 22.3322 4.3922 22.3322 4.5508C22.3249 4.71915 22.2932 4.86554 22.2175 4.98754C22.1395 5.10709 22.0419 5.19981 21.915 5.26569C21.7832 5.32425 21.6515 5.36084 21.4978 5.36084C21.3392 5.35596 21.1928 5.3218 21.0415 5.24617V5.20225C21.0415 5.20225 21.0659 5.20713 21.1147 5.21445C21.1635 5.21933 21.2269 5.22665 21.305 5.22665C21.3758 5.21689 21.4636 5.21201 21.5515 5.18517C21.6295 5.15833 21.7198 5.11197 21.7954 5.04366C21.8638 4.97046 21.9321 4.8753 21.976 4.74843C21.9858 4.71183 21.9955 4.67767 22.0004 4.63131C22.0004 4.58252 22.0077 4.54592 22.0077 4.50688C22.0028 4.32145 21.9443 4.18237 21.8198 4.07745C21.6881 3.96522 21.5222 3.9213 21.3001 3.9213H20.861C20.861 3.9213 20.8585 3.91154 20.8488 3.88714C20.839 3.86518 20.8341 3.84323 20.8244 3.82127C20.8146 3.79687 20.8122 3.78711 20.8122 3.78711L20.817 3.78467Z" fill="white"/>
<path d="M24.2872 6.39788C24.4994 6.39788 24.7068 6.3442 24.8874 6.23684C25.063 6.12461 25.2094 5.98066 25.3119 5.79034C25.4095 5.59759 25.4681 5.378 25.4681 5.12913C25.4656 4.86806 25.4168 4.65335 25.3119 4.46548C25.1997 4.27028 25.0655 4.12633 24.8874 4.02141C24.7044 3.90918 24.5092 3.86038 24.2872 3.86038C24.0627 3.85306 23.8699 3.91406 23.6918 4.02141C23.5088 4.12389 23.3722 4.2776 23.2673 4.46548C23.1624 4.64847 23.1111 4.87538 23.1111 5.12913C23.1062 5.37068 23.1624 5.60003 23.2673 5.79034C23.3698 5.98066 23.5137 6.12949 23.6918 6.23684C23.8651 6.33932 24.07 6.39788 24.2872 6.39788ZM24.2872 3.72131C24.4872 3.71887 24.6922 3.75547 24.8752 3.82134C25.0582 3.88478 25.2192 3.98482 25.3583 4.10925C25.49 4.23125 25.6047 4.38252 25.6828 4.55331C25.7584 4.71923 25.7999 4.91442 25.7999 5.12425C25.7926 5.32432 25.7609 5.52439 25.6828 5.69519C25.6047 5.86354 25.4973 6.01482 25.3583 6.13925C25.2119 6.25881 25.0582 6.36128 24.8752 6.42716C24.6922 6.4906 24.4945 6.52719 24.2872 6.52719C24.07 6.52231 23.8821 6.49304 23.7016 6.42716C23.5113 6.3564 23.36 6.26368 23.2209 6.13925C23.0794 6.00994 22.9745 5.86598 22.8964 5.69519C22.811 5.51951 22.7793 5.33408 22.7793 5.12425C22.7793 4.9071 22.8183 4.72411 22.8964 4.55331C22.9672 4.37764 23.0818 4.23369 23.2209 4.10925C23.3576 3.98238 23.521 3.88722 23.7016 3.82134C23.8748 3.75059 24.0798 3.72131 24.2872 3.72131Z" fill="white"/>
<path d="M26.5389 4.07512H26.5291C26.5193 3.99704 26.4998 3.94336 26.451 3.89701C26.3949 3.84577 26.3412 3.82869 26.2705 3.82869C26.268 3.82137 26.2607 3.82869 26.2436 3.82869C26.2241 3.82137 26.2168 3.82869 26.2168 3.82869V3.78477H26.5389V4.07512ZM26.5389 6.17831V6.46866H26.2168V6.42475C26.2168 6.42475 26.2266 6.42475 26.2461 6.42475C26.2632 6.42475 26.2754 6.42475 26.2754 6.42475C26.3437 6.42475 26.4071 6.40035 26.4535 6.35155C26.4949 6.30031 26.5267 6.24419 26.5291 6.17831H26.5389ZM26.8219 3.78477V6.46866H26.5315V3.78477H26.8219ZM27.7125 3.78477C28.0052 3.77745 28.2639 3.83845 28.4786 3.9458C28.6884 4.04828 28.8592 4.20687 28.9763 4.40939C29.0934 4.60702 29.1496 4.85101 29.1496 5.12672C29.1496 5.39755 29.091 5.64398 28.9763 5.84405C28.8592 6.04168 28.6957 6.19783 28.4786 6.30763C28.259 6.41498 28.0077 6.4711 27.7125 6.4711H26.7585L26.7487 6.33691C26.9488 6.33203 27.1318 6.33691 27.2733 6.33691C27.4123 6.33203 27.5246 6.33691 27.5978 6.33691C27.6661 6.33203 27.71 6.33691 27.71 6.33691C28.054 6.33203 28.3298 6.22955 28.5274 6.0124C28.7177 5.79525 28.8251 5.50246 28.8251 5.12916C28.8251 4.75585 28.725 4.46062 28.5274 4.24591C28.3224 4.02388 28.0565 3.92141 27.71 3.92141C27.7076 3.91897 27.671 3.92141 27.5929 3.92141C27.5099 3.91897 27.4026 3.92141 27.2538 3.92141C27.1 3.91897 26.9219 3.92141 26.7023 3.92141V3.78721H27.71L27.7125 3.78477Z" fill="white"/>
<path d="M29.8914 4.06521H29.8816C29.8768 3.99202 29.8524 3.94078 29.806 3.89442C29.7572 3.84562 29.6962 3.8261 29.623 3.8261C29.6181 3.81878 29.6132 3.8261 29.5913 3.8261C29.5669 3.81878 29.5596 3.8261 29.5596 3.8261V3.78218H29.95L29.8914 4.06277M29.8914 6.18061L29.95 6.46608H29.5596V6.42216C29.5596 6.42216 29.5693 6.42216 29.5913 6.42216C29.6084 6.42216 29.623 6.42216 29.623 6.42216C29.6913 6.42216 29.7596 6.39776 29.806 6.3514C29.8524 6.3026 29.8792 6.24648 29.8816 6.18061H29.8914ZM31.3675 3.71143V3.8261L30.8576 3.78218C30.9479 3.77486 31.0479 3.77486 31.1528 3.75778C31.2553 3.73339 31.3285 3.72607 31.3675 3.71143ZM31.3675 3.90906V4.21893H31.3187V4.15305C31.3187 4.08961 31.2992 4.03593 31.2577 3.99201C31.2114 3.94322 31.1626 3.9237 31.0943 3.9237V3.9115H31.3675V3.90906ZM31.1626 4.81182V5.06801H30.9284V5.05825C30.9894 5.05825 31.0382 5.03873 31.0674 5.00213C31.0894 4.95822 31.1113 4.92162 31.1113 4.87038V4.81182H31.1601H31.1626ZM31.1626 5.18269V5.43888H31.1138V5.38032C31.1089 5.32664 31.0991 5.28516 31.0699 5.24856C31.0333 5.21197 30.9942 5.19245 30.9308 5.19245V5.18269H31.165H31.1626ZM31.6237 5.82682L31.3773 6.46608H30.6966L30.8478 6.327C30.9894 6.32456 31.1162 6.30504 31.2089 6.26112C31.2943 6.21233 31.3749 6.15865 31.431 6.08301C31.4822 6.00493 31.5359 5.91954 31.5774 5.82438H31.6213L31.6237 5.82682ZM31.3675 3.78218V3.92126H30.1598V3.78218H31.3675ZM31.1626 5.05825V5.19245H30.1598V5.05825H31.1626ZM31.3724 6.32944L31.3627 6.46852H30.1598V6.32944H31.3724ZM30.1695 3.78462V6.46852H29.8841V3.78462H30.1695Z" fill="white"/>
<path d="M32.5851 6.18309H32.5973C32.5948 6.24653 32.6266 6.30508 32.6729 6.35388C32.7144 6.40024 32.7803 6.42464 32.851 6.42464C32.851 6.42464 32.8608 6.42464 32.8803 6.42464C32.8974 6.42464 32.9096 6.42464 32.9096 6.42464L32.9145 6.46856H32.5314L32.5851 6.18309ZM32.324 4.06526H32.3143C32.3118 3.99206 32.2874 3.94082 32.2386 3.89446C32.1898 3.84566 32.1313 3.82614 32.0605 3.82614C32.0556 3.81882 32.0507 3.82614 32.0288 3.82614C32.0044 3.81882 31.9971 3.82614 31.9971 3.82614V3.78223H32.3777L32.324 4.06281V4.06526ZM32.324 6.18309L32.3777 6.46856H31.9971V6.42464C31.9971 6.42464 32.0068 6.42464 32.0288 6.42464C32.0459 6.42464 32.0605 6.42464 32.0605 6.42464C32.1264 6.42464 32.1923 6.40024 32.2386 6.35388C32.2874 6.30508 32.3118 6.24897 32.3143 6.18309H32.324ZM32.5973 3.78467V6.46856H32.3118V3.78467H32.5973ZM32.5436 3.78467H33.1194C33.2585 3.77735 33.3854 3.80174 33.4976 3.83346C33.605 3.85786 33.705 3.91398 33.7855 3.97742C33.8612 4.03354 33.9246 4.11649 33.9661 4.20677C34.0027 4.2946 34.0295 4.39708 34.0295 4.51176C34.0271 4.63131 34.0002 4.75331 33.9392 4.86066C33.8734 4.9607 33.7953 5.05585 33.6904 5.12417C33.5806 5.18517 33.4634 5.23397 33.3293 5.24861C33.3732 5.26081 33.4391 5.31448 33.5074 5.38768C33.5659 5.45356 33.6318 5.5292 33.6806 5.59751C33.6806 5.59751 33.7001 5.62435 33.7392 5.67559C33.7758 5.72439 33.827 5.79271 33.8904 5.86834C33.9466 5.94154 34.0124 6.01718 34.071 6.08549C34.1344 6.15137 34.1905 6.21481 34.2442 6.26361C34.2955 6.30996 34.354 6.35388 34.415 6.38316C34.476 6.40756 34.5468 6.42464 34.6273 6.42464V6.46856H34.4882C34.3247 6.46856 34.1881 6.4466 34.0832 6.40512C33.9734 6.35876 33.8904 6.3124 33.827 6.25141C33.7538 6.18797 33.705 6.13185 33.6562 6.07329C33.6367 6.05133 33.6172 6.01962 33.5732 5.95862C33.5244 5.89518 33.483 5.83174 33.4317 5.75855C33.3756 5.68779 33.3341 5.62191 33.2927 5.56335C33.2512 5.5048 33.2243 5.47064 33.217 5.45844C33.1487 5.37548 33.0877 5.31205 33.0121 5.25105C32.9316 5.18761 32.8535 5.15833 32.7656 5.15833V5.11441C32.7656 5.11441 32.79 5.11441 32.8364 5.11441C32.8803 5.10953 32.9462 5.11441 33.0194 5.11441C33.095 5.10709 33.1853 5.10465 33.2707 5.09489C33.3537 5.07781 33.4317 5.05341 33.5049 4.99974C33.5708 4.93874 33.6342 4.85578 33.6782 4.73135C33.683 4.69231 33.6977 4.66059 33.705 4.61423C33.705 4.56787 33.7123 4.52396 33.7099 4.47516C33.705 4.38976 33.6904 4.31656 33.6635 4.25069C33.6342 4.18237 33.5952 4.12869 33.544 4.07989C33.4903 4.0311 33.4293 3.9945 33.3585 3.96766C33.2805 3.93594 33.2073 3.92618 33.117 3.92374C32.9706 3.91154 32.8535 3.91642 32.7486 3.91886C32.6388 3.91886 32.5924 3.9213 32.5924 3.91886C32.59 3.91154 32.5875 3.90422 32.5802 3.87982C32.5656 3.85786 32.5656 3.8359 32.5582 3.81395C32.5436 3.78955 32.546 3.77979 32.546 3.77979L32.5436 3.78467Z" fill="white"/>
<path d="M39.9562 3.29424C39.966 2.78674 39.9855 2.29632 40.005 1.79858C39.8269 2.32072 39.6488 2.85018 39.4658 3.36988C39.6415 3.3406 39.805 3.3162 39.9562 3.29424ZM37.6627 6.8687C38.1434 5.88786 38.5533 4.88506 38.8851 3.84566C37.4602 4.10185 36.4355 4.61179 35.806 5.3584C35.6864 5.49259 35.5888 5.65362 35.5132 5.82198C35.4375 5.98545 35.3887 6.166 35.3643 6.34412C35.3326 6.52223 35.3595 6.6979 35.4205 6.87114C35.479 7.03949 35.5864 7.19076 35.7352 7.31276C35.8304 7.37864 35.9328 7.43963 36.0426 7.47867C36.1475 7.51283 36.2647 7.54211 36.3818 7.54943C36.494 7.55187 36.6136 7.54943 36.7307 7.52503C36.9796 7.47867 37.1772 7.41767 37.3041 7.3274C37.4285 7.23468 37.5505 7.08341 37.6627 6.86626V6.8687ZM41.9252 3.1454C42.0131 3.13808 42.0326 3.20152 41.9618 3.31376C41.8886 3.41867 41.8032 3.51139 41.691 3.57483C41.6495 3.59191 41.6178 3.60655 41.5885 3.61143C41.1567 3.61631 40.7785 3.6407 40.4491 3.66022C40.4271 4.46295 40.4271 5.13148 40.4345 5.6463C40.4296 5.66094 40.4369 5.72194 40.4345 5.81954C40.4247 5.91469 40.4296 6.01717 40.4296 6.11965C40.4247 6.2148 40.4296 6.32704 40.4369 6.43683C40.4418 6.54175 40.4515 6.64178 40.4711 6.71742C40.4857 6.79306 40.5125 6.84186 40.5418 6.8565C40.6174 6.88577 40.6077 6.97361 40.5052 7.09805C40.4027 7.20784 40.31 7.28592 40.2075 7.31276C40.1661 7.31764 40.1417 7.32008 40.1173 7.30788C40.0538 7.2786 40.0172 7.2176 39.9855 7.11513C39.9489 7.01021 39.9367 6.91993 39.9318 6.8321C39.9245 6.73694 39.927 6.62958 39.927 6.49051C39.927 6.34412 39.927 6.2758 39.927 6.2636C39.9074 5.7195 39.9099 4.95581 39.9318 3.95545C39.9318 3.91885 39.9367 3.88226 39.9392 3.82614C39.9367 3.76514 39.9392 3.72854 39.9392 3.7017C39.7171 3.72122 39.5122 3.7505 39.3145 3.77734C39.1901 4.12381 39.0803 4.42635 38.9876 4.67522C38.9412 4.77282 38.8949 4.91677 38.8314 5.09733C38.768 5.27056 38.7143 5.42915 38.6704 5.55603C38.6216 5.67558 38.5679 5.8293 38.4996 6.00497C38.424 6.17088 38.363 6.32948 38.2995 6.45879C38.2337 6.58323 38.158 6.72474 38.0653 6.87114C37.9677 7.01509 37.8774 7.1444 37.7823 7.24932C37.6847 7.34692 37.5749 7.45671 37.448 7.55431C37.3187 7.64946 37.1869 7.73242 37.0454 7.79586C36.8478 7.87638 36.6575 7.93737 36.4525 7.97153C36.2427 8.00081 36.0451 8.01057 35.845 7.98617C35.6376 7.96177 35.4619 7.89101 35.296 7.77146C35.1301 7.64946 35.0081 7.48843 34.9227 7.28104C34.852 7.12489 34.8276 6.96629 34.8251 6.79794C34.8154 6.62715 34.8446 6.47099 34.891 6.31728C34.9325 6.15624 35.0008 6.01229 35.0813 5.86346C35.1569 5.71218 35.257 5.57311 35.3668 5.43647C35.4766 5.29496 35.5912 5.1754 35.7035 5.06317C35.8084 4.94605 35.9353 4.84602 36.0597 4.75086C36.8234 4.13845 37.8116 3.71146 39.0144 3.45283C39.0925 3.20152 39.1803 2.96241 39.2657 2.72086C39.3926 2.32316 39.5976 1.74002 39.8586 0.954373C39.8684 0.915334 39.8879 0.851897 39.9148 0.7665C39.9343 0.676224 39.9611 0.607907 39.9806 0.551789C39.9953 0.490792 40.0245 0.432234 40.0587 0.363917C40.0904 0.28828 40.1319 0.239482 40.1734 0.198003C40.2295 0.134566 40.3076 0.0808879 40.4052 0.0320899C40.5052 -0.0215879 40.5686 -0.00694816 40.5784 0.0686888C40.5833 0.210203 40.593 0.332198 40.5882 0.417595C40.5808 0.500552 40.5735 0.622546 40.5564 0.78114C40.532 0.939733 40.5296 1.05685 40.5272 1.13249C40.4906 1.83274 40.4735 2.53543 40.4564 3.23568C40.898 3.18688 41.3933 3.16004 41.9204 3.1454H41.9252Z" fill="white"/>
<path d="M41.6171 4.34347C41.6415 4.25807 41.6513 4.18975 41.6391 4.11168C41.6171 4.04336 41.5878 3.98724 41.5488 3.93356C41.5366 3.99212 41.5342 4.02384 41.5342 4.02628C41.5293 4.12876 41.5634 4.24099 41.6147 4.34347M42.659 5.54878C42.7151 5.45606 42.7907 5.39019 42.8859 5.33895C42.942 5.29991 42.9762 5.30723 42.9762 5.33895C42.9713 5.35359 42.9542 5.39507 42.9225 5.44142C42.8517 5.52926 42.8078 5.61222 42.7688 5.66589C42.7248 5.71957 42.6736 5.79033 42.6053 5.87085C42.5296 5.94892 42.4662 6.01968 42.3955 6.07336C42.3223 6.11972 42.2515 6.16851 42.1759 6.19779C42.0441 6.24903 41.9538 6.23927 41.8953 6.16851C41.8294 6.09288 41.8148 5.99528 41.8318 5.85865C41.8318 5.81961 41.8465 5.75861 41.8684 5.67321C41.8831 5.58294 41.9026 5.52438 41.9075 5.48046C41.9099 5.43166 41.9099 5.37311 41.8977 5.29015C41.8782 5.24623 41.8684 5.22183 41.844 5.19011C41.8148 5.15352 41.7928 5.13156 41.7586 5.11204C41.7245 5.08764 41.6928 5.073 41.661 5.05592C41.6269 5.0364 41.5927 5.01932 41.5537 4.99736C41.5073 4.96808 41.4829 4.95344 41.4561 4.93148V4.9266C41.3951 4.97296 41.3512 5.01932 41.3048 5.0608C41.1901 5.14375 41.134 5.1584 41.1218 5.09252C41.1096 5.01932 41.1389 4.95344 41.2121 4.87293C41.2194 4.84853 41.2438 4.83877 41.2609 4.82413C41.2658 4.80705 41.2926 4.79973 41.3195 4.77533C41.1901 4.5899 41.1389 4.39958 41.1584 4.18243C41.1633 4.0702 41.2121 3.95064 41.2951 3.80669C41.3756 3.66273 41.4732 3.55782 41.5854 3.49194C41.6952 3.42606 41.8099 3.45778 41.9221 3.58466C42.11 3.83841 42.0734 4.16292 41.783 4.56306C41.8221 4.6021 41.8831 4.64602 41.9563 4.69237C42.027 4.73629 42.088 4.77777 42.1295 4.80949C42.1661 4.83877 42.2076 4.88756 42.2417 4.95588C42.2735 5.02176 42.2881 5.10472 42.2832 5.19987C42.2735 5.24379 42.2661 5.32187 42.2393 5.42922C42.2051 5.53414 42.2003 5.61954 42.2027 5.67809C42.2125 5.86841 42.3003 5.90745 42.4565 5.78057C42.5321 5.70493 42.6077 5.63418 42.659 5.54878Z" fill="white"/>
<path d="M45.97 3.1162C46.0188 3.10888 46.0773 3.16744 46.131 3.27723C46.1871 3.39191 46.1993 3.46267 46.1579 3.48219L46.1408 3.49195L44.101 3.63834C43.7131 4.88757 43.4422 6.16364 43.2837 7.46411C43.269 7.53974 43.2227 7.53974 43.1275 7.44215C43.025 7.32991 42.964 7.23476 42.9396 7.12984C42.9299 7.10788 42.9299 7.09324 42.9299 7.08104C43.0665 5.92453 43.2983 4.78997 43.6252 3.67494L42.8274 3.7335C42.7688 3.72862 42.7225 3.68226 42.6664 3.57246C42.6078 3.45291 42.6029 3.38703 42.6444 3.36263C42.6468 3.35531 42.6566 3.35775 42.6615 3.35775L43.7375 3.28212C43.8521 2.87221 44.0205 2.32079 44.2377 1.62054C44.2474 1.56686 44.306 1.59614 44.3987 1.70106C44.5134 1.82305 44.5744 1.94261 44.5768 2.0402L44.5719 2.08412C44.4206 2.55746 44.3035 2.94785 44.2157 3.24552L45.97 3.1162Z" fill="white"/>
<path d="M44.7646 4.79492C44.6792 4.90715 44.6402 5.04135 44.6402 5.18774C44.6841 5.15603 44.7524 5.10235 44.8403 5.01451C44.9257 4.92179 45.0062 4.83152 45.0672 4.73148C45.1233 4.62657 45.1404 4.56557 45.1013 4.53141C45.0745 4.50457 45.0355 4.51921 44.9842 4.55825C44.9305 4.59241 44.8891 4.63877 44.8549 4.68024C44.811 4.71684 44.789 4.76076 44.7671 4.79492M45.9895 5.14383C46.0846 5.04867 46.1627 5.02671 46.2139 5.05843C46.2579 5.08771 46.2554 5.14383 46.1969 5.22434L46.1383 5.29022C46.0578 5.3561 45.9846 5.42929 45.9089 5.49029C45.8333 5.54397 45.7382 5.62449 45.6259 5.70744C45.5088 5.78308 45.4039 5.85384 45.2965 5.90264C45.1819 5.94411 45.0794 5.98559 44.9672 6.01243C44.8525 6.03439 44.7476 6.03195 44.6451 5.99535C44.5426 5.95387 44.4548 5.89043 44.3791 5.79284C44.3011 5.6928 44.262 5.58545 44.2571 5.46589C44.2498 5.33902 44.2742 5.22922 44.323 5.11455C44.3743 4.99499 44.4328 4.89252 44.4987 4.79492C44.5646 4.69488 44.6426 4.60705 44.728 4.51921C44.8427 4.39966 44.9842 4.29962 45.1379 4.21422C45.3746 4.08247 45.4942 4.12883 45.482 4.34354C45.4649 4.51189 45.3868 4.70952 45.2307 4.91691C45.0745 5.11943 44.9013 5.29266 44.7085 5.41953C44.7329 5.47077 44.7793 5.51225 44.8232 5.54885C45.0916 5.74892 45.4844 5.61473 45.9895 5.14383Z" fill="white"/>
</svg>
