<svg width="31" height="9" viewBox="0 0 31 9" fill="none" xmlns="http://www.w3.org/2000/svg">
<g clip-path="url(#clip0_161_1302)">
<path d="M6.86191 5.93932C5.85868 5.93932 5.03809 5.11873 5.03809 4.1155C5.03809 3.11228 5.85868 2.29785 6.86191 2.29785C7.86513 2.29785 8.67955 3.11104 8.67955 4.1155C8.67955 5.11996 7.86636 5.93932 6.86191 5.93932ZM5.94629 4.1155C5.94629 4.6239 6.35351 5.03111 6.86191 5.03111C7.3703 5.03111 7.77752 4.6239 7.77752 4.1155C7.77752 3.6071 7.36413 3.19989 6.86191 3.19989C6.35968 3.19989 5.94629 3.61327 5.94629 4.1155Z" fill="white"/>
<path d="M9.00391 2.542L9.91211 2.2915V2.46796C10.1157 2.36678 10.3465 2.31248 10.5834 2.31248C11.309 2.31248 11.9186 2.82828 12.0889 3.53289C12.1222 3.68837 12.116 3.81053 12.1222 3.97342L12.1296 5.94655H11.2214V3.96725C11.2214 3.79819 11.2411 3.70934 11.1535 3.55386C11.0387 3.34409 10.8351 3.21452 10.5834 3.21452C10.2515 3.21452 9.93926 3.49957 9.91211 3.85125V5.94655H9.00391V2.542Z" fill="white"/>
<path d="M12.4697 4.11532C12.4697 3.11209 13.2903 2.29767 14.2935 2.29767C14.6255 2.29767 14.9377 2.38528 15.2018 2.542V0L16.11 0.236924V5.93914H15.2018V5.69481C14.9377 5.85029 14.6255 5.93914 14.2935 5.93914C13.2903 5.93914 12.4697 5.12595 12.4697 4.11532ZM15.2018 4.03387C15.161 3.5662 14.7674 3.20711 14.2935 3.20711C13.7851 3.20711 13.3779 3.61432 13.3779 4.11532C13.3779 4.61631 13.7851 5.03093 14.2935 5.03093C14.7686 5.03093 15.161 4.66444 15.2018 4.20416V4.03511V4.03387Z" fill="white"/>
<path d="M19.1751 2.54218V2.29785L20.0833 2.54218V5.93192H19.1751V5.70116C18.9036 5.85047 18.5988 5.93809 18.2669 5.93809C17.2636 5.93809 16.4492 5.1249 16.4492 4.12167C16.4492 3.11845 17.2624 2.29785 18.2669 2.29785C18.5988 2.29785 18.9036 2.38546 19.1751 2.54218ZM17.3513 4.12167C17.3513 4.6239 17.7646 5.03728 18.2669 5.03728C19.4737 5.03728 19.4737 3.20606 18.2669 3.20606C17.7646 3.20606 17.3513 3.61327 17.3513 4.12167Z" fill="white"/>
<path d="M24.0487 4.12273C24.0487 5.12595 23.2355 5.93914 22.231 5.93914C21.8991 5.93914 21.5869 5.85153 21.3228 5.70222V8.23804H20.4072V2.54941L21.3228 2.2915V2.54941C21.5869 2.39392 21.8991 2.30508 22.231 2.30508C23.2343 2.30508 24.0487 3.11827 24.0487 4.12273ZM21.3228 4.20417C21.3636 4.67185 21.7572 5.03834 22.231 5.03834C22.7394 5.03834 23.1467 4.63113 23.1467 4.12273C23.1467 3.61433 22.7394 3.20712 22.231 3.20712C21.756 3.20712 21.3636 3.57361 21.3228 4.04128V4.20417Z" fill="white"/>
<path d="M28.0087 4.12273C28.0087 5.12595 27.1955 5.93914 26.191 5.93914C25.8591 5.93914 25.5469 5.85153 25.2828 5.70222V8.23804H24.3672V2.54941L25.2828 2.2915V2.54941C25.5469 2.39392 25.8591 2.30508 26.191 2.30508C27.1942 2.30508 28.0087 3.11827 28.0087 4.12273ZM25.2828 4.20417C25.3235 4.67185 25.7172 5.03834 26.191 5.03834C26.6994 5.03834 27.1066 4.63113 27.1066 4.12273C27.1066 3.61433 26.6994 3.20712 26.191 3.20712C25.7159 3.20712 25.3235 3.57361 25.2828 4.04128V4.20417Z" fill="white"/>
<path d="M0.160417 0.938965V2.01376H1.88552L0 4.43236H1.32159L4.04621 0.938965H0.160417Z" fill="white"/>
<path d="M4.63508 2.56396H3.31349L0.588867 6.05736H4.47466V4.98133H2.74956L4.63508 2.56396Z" fill="white"/>
<path d="M30.6643 4.07215C30.5569 3.98577 30.4298 3.91297 30.2817 3.85374C30.1349 3.79451 29.9695 3.74638 29.7881 3.70936C29.7092 3.69579 29.6327 3.67851 29.5599 3.65754C29.487 3.63656 29.4229 3.60941 29.3661 3.57856C29.3094 3.54771 29.2649 3.51193 29.2316 3.47244C29.1983 3.43295 29.1823 3.38483 29.1823 3.32806C29.1823 3.26513 29.202 3.21084 29.2415 3.16641C29.281 3.12199 29.3365 3.08744 29.4081 3.06276C29.4796 3.03808 29.5648 3.02574 29.6635 3.02574C29.7622 3.02574 29.8523 3.04055 29.9436 3.07016C30.0349 3.09978 30.1201 3.14297 30.2015 3.19973C30.225 3.21577 30.2472 3.23428 30.2706 3.25279L30.9481 2.91345C30.8654 2.78635 30.7654 2.67899 30.6482 2.59015C30.531 2.5013 30.3903 2.4322 30.2262 2.38407C30.0621 2.33595 29.8659 2.3125 29.6376 2.3125C29.4661 2.3125 29.3007 2.33841 29.1415 2.38901C28.9824 2.44083 28.8429 2.51364 28.722 2.60742C28.601 2.7012 28.5048 2.81473 28.4345 2.9443C28.3629 3.0751 28.3283 3.21824 28.3283 3.37372C28.3283 3.51933 28.3518 3.65137 28.3974 3.76859C28.4431 3.88582 28.5147 3.99071 28.6085 4.08079C28.7022 4.17211 28.8207 4.24861 28.9638 4.31154C29.1057 4.37448 29.2736 4.42754 29.4648 4.47073C29.5339 4.4843 29.6018 4.49911 29.6684 4.51762C29.7351 4.53613 29.798 4.55711 29.8572 4.58179C29.9165 4.60647 29.9683 4.63361 30.0115 4.66323C30.0547 4.69284 30.088 4.7274 30.1127 4.76688C30.1374 4.80637 30.1497 4.85079 30.1497 4.90139C30.1497 4.96802 30.13 5.02355 30.0905 5.06797C30.051 5.1124 29.9942 5.14695 29.9214 5.16916C29.8486 5.19261 29.7672 5.20371 29.6783 5.20371C29.4994 5.20371 29.3266 5.16546 29.16 5.09018C29.1033 5.06427 29.0465 5.02849 28.9885 4.98653L28.1494 5.22469C28.2617 5.3666 28.3888 5.48999 28.5319 5.59488C28.6739 5.69854 28.8367 5.77874 29.0206 5.83304C29.2045 5.88733 29.4105 5.91448 29.6388 5.91448C29.9029 5.91448 30.1374 5.87006 30.341 5.78245C30.5446 5.69483 30.705 5.56773 30.8222 5.39991C30.9394 5.23333 30.9987 5.02849 30.9987 4.78663C30.9987 4.63115 30.9691 4.49417 30.9123 4.37695C30.8543 4.25972 30.7716 4.1573 30.6643 4.07215Z" fill="white"/>
</g>
<defs>
<clipPath id="clip0_161_1302">
<rect width="31" height="8.23804" fill="white"/>
</clipPath>
</defs>
</svg>
